<?xml version="1.0" encoding="UTF-8"?>
<!DOCTYPE svg PUBLIC "-//W3C//DTD SVG 1.1//EN" "http://www.w3.org/Graphics/SVG/1.1/DTD/svg11.dtd">
<!-- Creator: CorelDRAW X7 -->
<svg xmlns="http://www.w3.org/2000/svg" xml:space="preserve" version="1.1" style="shape-rendering:geometricPrecision; text-rendering:geometricPrecision; image-rendering:optimizeQuality; fill-rule:evenodd; clip-rule:evenodd"
viewBox="0 0 15616 4887"
 xmlns:xlink="http://www.w3.org/1999/xlink">
 <defs>
  <style type="text/css">
   <![CDATA[
    .pen {stroke:#2B2A29;stroke-width:7.67401}
    .light {fill:#4ecdfd;fill-rule:nonzero}
    .dark {fill:#383261;fill-rule:nonzero}
   ]]>
  </style>
 </defs>
 <g id="AlifaCloud_x0020_Logo">
  <metadata id="CorelCorpID_0Corel-Layer"/>
  <text xml:space="preserve" text-anchor="start" font-family="Helvetica, Arial, sans-serif" font-size="2430" font-weight="bold" letter-spacing="50" id="svg_text1" y="3220" x="5355" stroke-width="0" class="dark">ALIFA</text>
  <!--
  <path class="fil0" d="M7105 3213l-378 0 -149 -394 -695 0 -144 394 -371 0 672 -1733 371 0 694 1733zm-641 -687l-241 -641 -234 641 475 0zm891 687l0 -1718 351 0 0 1425 869 0 0 293 -1220 0zm1511 0l0 -1733 351 0 0 1733 -351 0zm738 0l0 -1733 1191 0 0 293 -840 0 0 412 726 0 0 292 -726 0 0 736 -351 0zm2959 0l-378 0 -149 -394 -695 0 -144 394 -371 0 673 -1733 370 0 694 1733zm-641 -687l-241 -641 -234 641 475 0z"/>
  -->
  <text xml:space="preserve" text-anchor="start" font-family="Helvetica, Arial, sans-serif" font-size="1025" font-weight="800" letter-spacing="15" id="svg_text2" y="1965" x="12560" stroke-width="0" class="light">cloud</text>
  <!--
  <path class="fil1" d="M13483 1609c-9,-123 -121,-183 -243,-183 -167,0 -263,111 -263,261 0,145 105,247 260,247 136,0 231,-69 249,-197l-137 0c-9,58 -47,98 -113,98 -88,0 -117,-83 -117,-152 0,-71 30,-157 120,-157 59,0 96,29 105,83l139 0zm109 312l142 0 0 -666 -142 0 0 666zm260 -240c0,153 104,253 266,253 163,0 267,-100 267,-253 0,-154 -104,-255 -267,-255 -162,0 -266,101 -266,255zm141 0c0,-78 29,-155 125,-155 97,0 126,77 126,155 0,76 -29,154 -126,154 -96,0 -125,-78 -125,-154zm990 -242l-142 0 0 253c0,98 -32,138 -109,138 -66,0 -91,-39 -91,-118l0 -273 -142 0 0 297c0,119 38,198 189,198 60,0 122,-26 157,-80l3 0 0 67 135 0 0 -482zm498 482l135 0 0 -666 -142 0 0 243 -2 0c-32,-48 -91,-72 -152,-72 -152,0 -229,120 -229,250 0,133 76,258 232,258 65,0 123,-22 156,-74l2 0 0 61zm-2 -242c0,79 -28,156 -121,156 -88,0 -125,-80 -125,-155 0,-79 32,-154 125,-154 91,0 121,75 121,153z"/>
  -->
  <path class="light" id="svg_path1" d="M2443 0c675,0 1286,274 1728,716 442,442 716,1053 716,1727 0,675 -274,1286 -716,1728 -442,442 -1053,716 -1728,716 -674,0 -1285,-274 -1727,-716 -442,-442 -716,-1053 -716,-1728 0,-674 274,-1285 716,-1727 442,-442 1053,-716 1727,-716zm1651 793c-422,-423 -1006,-684 -1651,-684 -644,0 -1228,261 -1650,684 -423,422 -684,1006 -684,1650 0,645 261,1229 684,1651 422,423 1006,684 1650,684 645,0 1229,-261 1651,-684 423,-422 684,-1006 684,-1651 0,-644 -261,-1228 -684,-1650z"/>
  <path class="light" id="svg_path2" d="M3472 1818l196 9c20,1 38,13 46,31l81 178c20,43 81,41 98,-3l68 -184c7,-19 24,-32 44,-34l195 -22c46,-6 63,-65 26,-94l-153 -122c-16,-13 -23,-32 -19,-52l39 -192c9,-46 -42,-80 -81,-55l-164 109c-16,11 -37,11 -54,2l-171 -97c-41,-23 -89,15 -77,60l52 189c6,19 0,40 -15,53l-144 133c-35,32 -14,89 33,91z"/>
  <path class="dark pen" id="svg_path3" d="M3350 2000c73,-79 195,-84 274,-12 78,73 83,195 11,274 -96,104 -196,199 -298,287l293 607c46,96 6,212 -90,258 -96,47 -212,7 -258,-90l-874 -1813 -673 1456c260,-74 629,-211 1001,-451l168 349c-751,472 -1480,566 -1483,567 -106,14 -203,-60 -217,-166 -6,-38 1,-75 16,-107l-1 0 1010 -2182c45,-97 160,-140 257,-95 44,20 77,55 95,96l582 1209c64,-59 126,-121 187,-187z"/>
 </g>
</svg>
